<svg width="800" height="400" viewBox="0 0 800 400" xmlns="http://www.w3.org/2000/svg"><defs><pattern id="satori_pattern_id_0" x="0" y="0" width="1" height="1" patternUnits="objectBoundingBox"><linearGradient id="satori_biid_0" x1="0" y1="0" x2="0" y2="1"><stop offset="0%" stop-color="rgba(0,0,0,1)"/><stop offset="50%" stop-color="rgba(56,78,117,1)"/><stop offset="100%" stop-color="#4d4474"/></linearGradient><rect x="0" y="0" width="800" height="400" fill="url(#satori_biid_0)"/></pattern></defs><mask id="satori_om-id"><rect x="0" y="0" width="800" height="400" fill="#fff"/></mask><rect x="0" y="0" width="800" height="400" fill="url(#satori_pattern_id_0)"/><mask id="satori_om-id-0"><rect x="186" y="143" width="428" height="72" fill="#fff"/></mask><path fill="#e1dbff" d="M208.3 165.5L197.3 199.2L187.4 199.2L202.5 155.5L214.4 155.5L229.4 199.2L219.5 199.2L208.6 165.5L208.3 165.5ZM196.7 189.2L196.7 182.0L220.0 182.0L220.0 189.2L196.7 189.2ZM259.0 175.8L259.0 175.8L250.6 176.3Q250.4 175.2 249.7 174.3Q249.0 173.5 247.9 173.0Q246.7 172.4 245.2 172.4L245.2 172.4Q243.1 172.4 241.6 173.3Q240.2 174.2 240.2 175.7L240.2 175.7Q240.2 176.9 241.1 177.7Q242.0 178.5 244.3 179.0L244.3 179.0L250.2 180.2Q255.0 181.1 257.4 183.3Q259.7 185.5 259.7 189.0L259.7 189.0Q259.7 192.2 257.8 194.7Q255.9 197.1 252.7 198.4Q249.4 199.8 245.1 199.8L245.1 199.8Q238.6 199.8 234.8 197.1Q230.9 194.4 230.3 189.7L230.3 189.7L239.2 189.2Q239.6 191.2 241.2 192.2Q242.7 193.3 245.2 193.3L245.2 193.3Q247.5 193.3 249.0 192.3Q250.5 191.4 250.5 189.9L250.5 189.9Q250.5 188.7 249.4 187.9Q248.4 187.1 246.3 186.7L246.3 186.7L240.6 185.5Q235.8 184.6 233.5 182.2Q231.2 179.9 231.2 176.2L231.2 176.2Q231.2 173.0 232.9 170.8Q234.6 168.5 237.7 167.2Q240.8 166.0 245.0 166.0L245.0 166.0Q251.2 166.0 254.8 168.6Q258.4 171.2 259.0 175.8ZM261.1 166.4L280.8 166.4L280.8 173.3L261.1 173.3L261.1 166.4ZM265.6 190.3L265.6 158.6L274.7 158.6L274.7 189.1Q274.7 190.4 275.1 191.1Q275.5 191.7 276.1 192.0Q276.8 192.3 277.8 192.3L277.8 192.3Q278.4 192.3 279.0 192.2Q279.7 192.1 280.0 192.0L280.0 192.0L281.4 198.8Q280.8 199.0 279.5 199.3Q278.3 199.5 276.5 199.6L276.5 199.6Q273.2 199.7 270.8 198.7Q268.3 197.7 267.0 195.6Q265.6 193.5 265.6 190.3L265.6 190.3ZM293.8 199.2L284.7 199.2L284.7 166.4L293.5 166.4L293.5 172.1L293.9 172.1Q294.8 169.1 296.9 167.5Q299.0 166.0 301.7 166.0L301.7 166.0Q302.4 166.0 303.2 166.0Q304.0 166.1 304.6 166.3L304.6 166.3L304.6 174.3Q304.0 174.1 302.8 174.0Q301.7 173.8 300.8 173.8L300.8 173.8Q298.8 173.8 297.2 174.7Q295.6 175.6 294.7 177.1Q293.8 178.6 293.8 180.6L293.8 180.6L293.8 199.2ZM320.5 199.8L320.5 199.8Q315.6 199.8 311.9 197.7Q308.3 195.6 306.4 191.8Q304.4 188.0 304.4 182.9L304.4 182.9Q304.4 177.9 306.4 174.1Q308.3 170.2 311.9 168.1Q315.6 166.0 320.5 166.0L320.5 166.0Q325.5 166.0 329.1 168.1Q332.7 170.2 334.7 174.1Q336.6 177.9 336.6 182.9L336.6 182.9Q336.6 188.0 334.7 191.8Q332.7 195.6 329.1 197.7Q325.5 199.8 320.5 199.8ZM320.6 192.8L320.6 192.8Q322.8 192.8 324.3 191.5Q325.8 190.2 326.6 188.0Q327.4 185.7 327.4 182.9L327.4 182.9Q327.4 180.0 326.6 177.8Q325.8 175.5 324.3 174.2Q322.8 172.9 320.6 172.9L320.6 172.9Q318.3 172.9 316.7 174.2Q315.2 175.5 314.4 177.8Q313.6 180.0 313.6 182.9L313.6 182.9Q313.6 185.7 314.4 188.0Q315.2 190.2 316.7 191.5Q318.3 192.8 320.6 192.8ZM340.6 155.5L349.6 155.5L349.6 199.2L340.6 199.2L340.6 155.5ZM364.2 199.8L364.2 199.8Q361.1 199.8 358.6 198.7Q356.2 197.6 354.8 195.4Q353.3 193.3 353.3 190.0L353.3 190.0Q353.3 187.3 354.3 185.4Q355.3 183.6 357.1 182.5Q358.8 181.3 361.0 180.8Q363.2 180.2 365.6 179.9L365.6 179.9Q368.5 179.6 370.2 179.4Q372.0 179.1 372.8 178.6Q373.6 178.0 373.6 177.0L373.6 177.0L373.6 176.9Q373.6 174.8 372.3 173.7Q371.0 172.6 368.7 172.6L368.7 172.6Q366.3 172.6 364.8 173.7Q363.4 174.8 362.9 176.4L362.9 176.4L354.5 175.7Q355.1 172.7 357.0 170.6Q358.9 168.4 361.9 167.2Q364.8 166.0 368.7 166.0L368.7 166.0Q371.5 166.0 374.0 166.6Q376.5 167.3 378.4 168.6Q380.4 170.0 381.5 172.1Q382.6 174.2 382.6 177.1L382.6 177.1L382.6 199.2L374.0 199.2L374.0 194.6L373.8 194.6Q373.0 196.2 371.7 197.3Q370.3 198.5 368.5 199.1Q366.6 199.8 364.2 199.8ZM366.8 193.5L366.8 193.5Q368.8 193.5 370.3 192.7Q371.9 191.9 372.8 190.6Q373.6 189.2 373.6 187.5L373.6 187.5L373.6 184.0Q373.2 184.3 372.5 184.5Q371.7 184.7 370.8 184.9Q369.9 185.1 369.0 185.2Q368.1 185.4 367.3 185.5L367.3 185.5Q365.7 185.7 364.5 186.2Q363.3 186.7 362.7 187.6Q362.0 188.4 362.0 189.7L362.0 189.7Q362.0 191.6 363.4 192.5Q364.7 193.5 366.8 193.5ZM396.8 199.2L387.9 199.2L387.9 155.5L396.9 155.5L396.9 171.9L397.2 171.9Q397.8 170.6 398.9 169.2Q400.1 167.9 401.9 166.9Q403.8 166.0 406.5 166.0L406.5 166.0Q410.1 166.0 413.1 167.9Q416.2 169.7 418.0 173.5Q419.8 177.2 419.8 182.8L419.8 182.8Q419.8 188.3 418.0 192.1Q416.3 195.8 413.2 197.8Q410.2 199.7 406.5 199.7L406.5 199.7Q403.9 199.7 402.0 198.8Q400.2 197.9 399.0 196.6Q397.8 195.3 397.2 193.9L397.2 193.9L396.8 193.9L396.8 199.2ZM396.7 182.8L396.7 182.8Q396.7 185.7 397.6 187.9Q398.4 190.1 399.9 191.3Q401.4 192.5 403.6 192.5L403.6 192.5Q405.8 192.5 407.4 191.2Q408.9 190.0 409.7 187.8Q410.5 185.7 410.5 182.8L410.5 182.8Q410.5 180.0 409.7 177.8Q408.9 175.7 407.4 174.4Q405.9 173.2 403.6 173.2L403.6 173.2Q401.4 173.2 399.9 174.4Q398.4 175.6 397.6 177.7Q396.7 179.9 396.7 182.8Z M470.7 168.1L461.9 168.1Q461.6 165.5 459.7 164.1Q457.7 162.6 454.4 162.6L454.4 162.6Q452.1 162.6 450.6 163.3Q449.0 163.9 448.2 165.0Q447.4 166.1 447.4 167.5L447.4 167.5Q447.4 168.7 447.9 169.6Q448.4 170.4 449.4 171.1Q450.4 171.7 451.6 172.2Q452.9 172.6 454.3 172.9L454.3 172.9L458.2 173.9Q461.1 174.5 463.5 175.6Q465.8 176.6 467.6 178.2Q469.3 179.7 470.3 181.9Q471.3 184.0 471.3 186.7L471.3 186.7Q471.3 190.7 469.3 193.6Q467.3 196.6 463.5 198.2Q459.7 199.8 454.4 199.8L454.4 199.8Q449.1 199.8 445.2 198.2Q441.3 196.5 439.1 193.4Q436.9 190.2 436.8 185.5L436.8 185.5L445.7 185.5Q445.9 187.7 447.0 189.1Q448.1 190.6 450.0 191.3Q451.9 192.0 454.3 192.0L454.3 192.0Q456.6 192.0 458.3 191.4Q460.1 190.7 461.0 189.5Q462.0 188.3 462.0 186.7L462.0 186.7Q462.0 185.2 461.1 184.2Q460.3 183.2 458.6 182.5Q457.0 181.8 454.6 181.2L454.6 181.2L449.8 180.0Q444.3 178.7 441.1 175.8Q437.9 173.0 437.9 168.1L437.9 168.1Q437.9 164.2 440.1 161.2Q442.2 158.3 445.9 156.6Q449.7 154.9 454.5 154.9L454.5 154.9Q459.3 154.9 463.0 156.6Q466.6 158.3 468.6 161.2Q470.6 164.2 470.7 168.1L470.7 168.1ZM473.0 166.4L492.7 166.4L492.7 173.3L473.0 173.3L473.0 166.4ZM477.5 190.3L477.5 158.6L486.6 158.6L486.6 189.1Q486.6 190.4 486.9 191.1Q487.3 191.7 488.0 192.0Q488.7 192.3 489.6 192.3L489.6 192.3Q490.3 192.3 490.9 192.2Q491.5 192.1 491.9 192.0L491.9 192.0L493.3 198.8Q492.6 199.0 491.4 199.3Q490.2 199.5 488.4 199.6L488.4 199.6Q485.1 199.7 482.7 198.7Q480.2 197.7 478.8 195.6Q477.5 193.5 477.5 190.3L477.5 190.3ZM517.6 185.2L517.6 185.2L517.6 166.4L526.7 166.4L526.7 199.2L518.0 199.2L518.0 193.2L517.6 193.2Q516.5 196.1 514.0 197.8Q511.4 199.6 507.7 199.6L507.7 199.6Q504.4 199.6 501.9 198.1Q499.4 196.6 498.0 193.9Q496.6 191.1 496.6 187.3L496.6 187.3L496.6 166.4L505.7 166.4L505.7 185.7Q505.7 188.5 507.3 190.2Q508.8 191.9 511.4 191.9L511.4 191.9Q513.0 191.9 514.4 191.2Q515.9 190.4 516.7 188.9Q517.6 187.4 517.6 185.2ZM544.0 199.7L544.0 199.7Q540.3 199.7 537.2 197.8Q534.2 195.8 532.5 192.1Q530.7 188.3 530.7 182.8L530.7 182.8Q530.7 177.2 532.5 173.5Q534.3 169.7 537.4 167.9Q540.4 166.0 544.0 166.0L544.0 166.0Q546.7 166.0 548.6 166.9Q550.4 167.9 551.5 169.2Q552.7 170.6 553.3 171.9L553.3 171.9L553.6 171.9L553.6 155.5L562.6 155.5L562.6 199.2L553.7 199.2L553.7 193.9L553.3 193.9Q552.6 195.3 551.5 196.6Q550.3 197.9 548.5 198.8Q546.6 199.7 544.0 199.7ZM546.9 192.5L546.9 192.5Q549.1 192.5 550.6 191.3Q552.1 190.1 552.9 187.9Q553.7 185.7 553.7 182.8L553.7 182.8Q553.7 179.9 552.9 177.7Q552.1 175.6 550.6 174.4Q549.1 173.2 546.9 173.2L546.9 173.2Q544.6 173.2 543.1 174.4Q541.6 175.7 540.8 177.8Q540.0 180.0 540.0 182.8L540.0 182.8Q540.0 185.7 540.8 187.8Q541.6 190.0 543.1 191.2Q544.6 192.5 546.9 192.5ZM577.1 199.2L568.0 199.2L568.0 166.4L577.1 166.4L577.1 199.2ZM572.6 162.2L572.6 162.2Q570.6 162.2 569.1 160.9Q567.7 159.5 567.7 157.6L567.7 157.6Q567.7 155.7 569.1 154.4Q570.6 153.0 572.6 153.0L572.6 153.0Q574.6 153.0 576.1 154.4Q577.5 155.7 577.5 157.6L577.5 157.6Q577.5 159.5 576.1 160.9Q574.6 162.2 572.6 162.2ZM597.2 199.8L597.2 199.8Q592.2 199.8 588.6 197.7Q585.0 195.6 583.0 191.8Q581.0 188.0 581.0 182.9L581.0 182.9Q581.0 177.9 583.0 174.1Q585.0 170.2 588.6 168.1Q592.2 166.0 597.2 166.0L597.2 166.0Q602.1 166.0 605.7 168.1Q609.3 170.2 611.3 174.1Q613.3 177.9 613.3 182.9L613.3 182.9Q613.3 188.0 611.3 191.8Q609.3 195.6 605.7 197.7Q602.1 199.8 597.2 199.8ZM597.2 192.8L597.2 192.8Q599.5 192.8 601.0 191.5Q602.5 190.2 603.3 188.0Q604.0 185.7 604.0 182.9L604.0 182.9Q604.0 180.0 603.3 177.8Q602.5 175.5 601.0 174.2Q599.5 172.9 597.2 172.9L597.2 172.9Q594.9 172.9 593.4 174.2Q591.8 175.5 591.1 177.8Q590.3 180.0 590.3 182.9L590.3 182.9Q590.3 185.7 591.1 188.0Q591.8 190.2 593.4 191.5Q594.9 192.8 597.2 192.8Z "/><mask id="satori_om-id-1"><rect x="207" y="215" width="386" height="42" fill="#fff"/></mask><path fill="#e1dbff" d="M213.2 247.8L210.1 247.8L210.1 222.3L225.3 222.3L225.3 225.0L213.2 225.0L213.2 233.6L224.2 233.6L224.2 236.4L213.2 236.4L213.2 247.8ZM231.2 247.8L228.2 247.8L228.2 228.7L231.2 228.7L231.2 247.8ZM229.7 225.5L229.7 225.5Q228.9 225.5 228.2 224.9Q227.6 224.3 227.6 223.5L227.6 223.5Q227.6 222.7 228.2 222.1Q228.9 221.5 229.7 221.5L229.7 221.5Q230.6 221.5 231.2 222.1Q231.8 222.7 231.8 223.5L231.8 223.5Q231.8 224.3 231.2 224.9Q230.6 225.5 229.7 225.5ZM237.5 236.3L237.5 236.3L237.5 247.8L234.5 247.8L234.5 228.7L237.4 228.7L237.4 231.7L237.6 231.7Q238.3 230.2 239.6 229.3Q241.0 228.4 243.2 228.4L243.2 228.4Q245.1 228.4 246.6 229.2Q248.0 230.0 248.8 231.6Q249.6 233.2 249.6 235.6L249.6 235.6L249.6 247.8L246.7 247.8L246.7 235.8Q246.7 233.6 245.5 232.3Q244.4 231.1 242.3 231.1L242.3 231.1Q240.9 231.1 239.8 231.7Q238.7 232.3 238.1 233.4Q237.5 234.6 237.5 236.3ZM260.2 248.2L260.2 248.2Q257.8 248.2 256.0 246.9Q254.2 245.7 253.1 243.5Q252.1 241.3 252.1 238.3L252.1 238.3Q252.1 235.3 253.1 233.0Q254.2 230.8 256.0 229.6Q257.9 228.4 260.3 228.4L260.3 228.4Q262.1 228.4 263.2 229.0Q264.3 229.7 264.9 230.4Q265.5 231.2 265.8 231.7L265.8 231.7L266.0 231.7L266.0 222.3L269.0 222.3L269.0 247.8L266.1 247.8L266.1 244.8L265.8 244.8Q265.5 245.3 264.9 246.1Q264.3 246.9 263.2 247.5Q262.1 248.2 260.2 248.2ZM260.6 245.5L260.6 245.5Q262.4 245.5 263.6 244.6Q264.8 243.7 265.4 242.0Q266.1 240.4 266.1 238.2L266.1 238.2Q266.1 236.1 265.5 234.5Q264.8 232.9 263.6 232.0Q262.4 231.1 260.6 231.1L260.6 231.1Q258.7 231.1 257.5 232.0Q256.3 233.0 255.7 234.6Q255.0 236.2 255.0 238.2L255.0 238.2Q255.0 240.3 255.7 241.9Q256.3 243.6 257.5 244.5Q258.8 245.5 260.6 245.5ZM275.7 247.8L272.7 247.8L272.7 228.7L275.7 228.7L275.7 247.8ZM274.2 225.5L274.2 225.5Q273.4 225.5 272.7 224.9Q272.1 224.3 272.1 223.5L272.1 223.5Q272.1 222.7 272.7 222.1Q273.4 221.5 274.2 221.5L274.2 221.5Q275.1 221.5 275.7 222.1Q276.3 222.7 276.3 223.5L276.3 223.5Q276.3 224.3 275.7 224.9Q275.1 225.5 274.2 225.5ZM282.0 236.3L282.0 236.3L282.0 247.8L279.0 247.8L279.0 228.7L281.9 228.7L281.9 231.7L282.1 231.7Q282.8 230.2 284.2 229.3Q285.5 228.4 287.7 228.4L287.7 228.4Q289.6 228.4 291.1 229.2Q292.5 230.0 293.3 231.6Q294.1 233.2 294.1 235.6L294.1 235.6L294.1 247.8L291.2 247.8L291.2 235.8Q291.2 233.6 290.0 232.3Q288.9 231.1 286.8 231.1L286.8 231.1Q285.4 231.1 284.3 231.7Q283.2 232.3 282.6 233.4Q282.0 234.6 282.0 236.3ZM305.2 255.3L305.2 255.3Q303.1 255.3 301.6 254.8Q300.0 254.2 299.0 253.4Q298.0 252.5 297.4 251.5L297.4 251.5L299.8 249.8Q300.1 250.4 300.8 251.0Q301.4 251.7 302.4 252.2Q303.5 252.7 305.2 252.7L305.2 252.7Q307.5 252.7 309.0 251.6Q310.5 250.5 310.5 248.1L310.5 248.1L310.5 244.2L310.3 244.2Q310.0 244.8 309.4 245.5Q308.8 246.3 307.7 246.9Q306.6 247.5 304.7 247.5L304.7 247.5Q302.4 247.5 300.6 246.4Q298.7 245.3 297.7 243.2Q296.6 241.1 296.6 238.1L296.6 238.1Q296.6 235.2 297.7 233.0Q298.7 230.8 300.5 229.6Q302.4 228.4 304.8 228.4L304.8 228.4Q306.6 228.4 307.7 229.0Q308.8 229.7 309.4 230.4Q310.0 231.2 310.3 231.7L310.3 231.7L310.6 231.7L310.6 228.7L313.5 228.7L313.5 248.3Q313.5 250.8 312.4 252.3Q311.2 253.9 309.4 254.6Q307.5 255.3 305.2 255.3ZM305.1 244.8L305.1 244.8Q306.9 244.8 308.1 244.0Q309.3 243.2 310.0 241.7Q310.6 240.2 310.6 238.1L310.6 238.1Q310.6 236.0 310.0 234.4Q309.3 232.8 308.1 232.0Q306.9 231.1 305.1 231.1L305.1 231.1Q303.3 231.1 302.0 232.0Q300.8 232.9 300.2 234.5Q299.6 236.1 299.6 238.1L299.6 238.1Q299.6 240.1 300.2 241.6Q300.8 243.1 302.0 244.0Q303.3 244.8 305.1 244.8Z M332.1 237.3L322.9 222.3L326.4 222.3L333.5 234.2L333.8 234.2L340.8 222.3L344.4 222.3L335.2 237.3L335.2 247.8L332.1 247.8L332.1 237.3ZM351.0 248.2L351.0 248.2Q348.4 248.2 346.5 246.9Q344.5 245.7 343.5 243.5Q342.4 241.3 342.4 238.3L342.4 238.3Q342.4 235.3 343.5 233.1Q344.5 230.9 346.5 229.7Q348.4 228.4 351.0 228.4L351.0 228.4Q353.6 228.4 355.6 229.7Q357.5 230.9 358.6 233.1Q359.7 235.3 359.7 238.3L359.7 238.3Q359.7 241.3 358.6 243.5Q357.5 245.7 355.6 246.9Q353.6 248.2 351.0 248.2ZM351.0 245.5L351.0 245.5Q353.0 245.5 354.3 244.5Q355.5 243.5 356.1 241.9Q356.7 240.2 356.7 238.3L356.7 238.3Q356.7 236.4 356.1 234.7Q355.5 233.1 354.3 232.1Q353.0 231.1 351.0 231.1L351.0 231.1Q349.1 231.1 347.8 232.1Q346.5 233.1 345.9 234.7Q345.3 236.4 345.3 238.3L345.3 238.3Q345.3 240.2 345.9 241.9Q346.5 243.5 347.8 244.5Q349.1 245.5 351.0 245.5ZM374.2 240.0L374.2 240.0L374.2 228.7L377.1 228.7L377.1 247.8L374.2 247.8L374.2 244.5L374.0 244.5Q373.3 246.0 371.9 247.0Q370.5 248.0 368.3 248.0L368.3 248.0Q366.5 248.0 365.1 247.2Q363.7 246.4 362.9 244.8Q362.1 243.2 362.1 240.8L362.1 240.8L362.1 228.7L365.1 228.7L365.1 240.6Q365.1 242.7 366.3 243.9Q367.4 245.2 369.3 245.2L369.3 245.2Q370.4 245.2 371.5 244.6Q372.6 244.1 373.4 242.9Q374.2 241.7 374.2 240.0ZM383.4 247.8L380.5 247.8L380.5 228.7L383.3 228.7L383.3 231.6L383.5 231.6Q384.0 230.1 385.4 229.3Q386.8 228.4 388.5 228.4L388.5 228.4Q388.8 228.4 389.3 228.4Q389.8 228.4 390.0 228.4L390.0 228.4L390.0 231.4Q389.9 231.4 389.4 231.3Q388.8 231.2 388.2 231.2L388.2 231.2Q386.8 231.2 385.8 231.8Q384.7 232.4 384.0 233.4Q383.4 234.4 383.4 235.7L383.4 235.7L383.4 247.8Z M419.3 228.7L416.4 228.7Q416.1 226.8 414.5 225.7Q412.9 224.7 410.6 224.7L410.6 224.7Q408.9 224.7 407.7 225.2Q406.4 225.8 405.7 226.7Q405.0 227.7 405.0 228.9L405.0 228.9Q405.0 229.9 405.5 230.7Q406.0 231.4 406.8 231.9Q407.5 232.3 408.4 232.7Q409.2 233.0 409.9 233.1L409.9 233.1L412.5 233.8Q413.5 234.1 414.7 234.6Q416.0 235.0 417.1 235.8Q418.2 236.6 419.0 237.8Q419.7 239.1 419.7 240.8L419.7 240.8Q419.7 242.9 418.6 244.6Q417.5 246.2 415.5 247.2Q413.4 248.2 410.5 248.2L410.5 248.2Q407.8 248.2 405.8 247.3Q403.8 246.4 402.6 244.9Q401.5 243.3 401.3 241.2L401.3 241.2L404.5 241.2Q404.6 242.6 405.5 243.6Q406.3 244.5 407.7 245.0Q409.0 245.4 410.5 245.4L410.5 245.4Q412.3 245.4 413.7 244.8Q415.1 244.3 415.9 243.2Q416.7 242.2 416.7 240.8L416.7 240.8Q416.7 239.5 416.0 238.7Q415.3 237.9 414.1 237.4Q413.0 236.9 411.6 236.6L411.6 236.6L408.5 235.7Q405.5 234.8 403.8 233.2Q402.0 231.6 402.0 229.1L402.0 229.1Q402.0 226.9 403.2 225.3Q404.4 223.7 406.3 222.8Q408.3 222.0 410.7 222.0L410.7 222.0Q413.2 222.0 415.1 222.8Q417.0 223.7 418.2 225.2Q419.3 226.7 419.3 228.7L419.3 228.7ZM425.3 254.9L422.4 254.9L422.4 228.7L425.2 228.7L425.2 231.7L425.5 231.7Q425.9 231.2 426.4 230.4Q427.0 229.7 428.1 229.0Q429.2 228.4 431.1 228.4L431.1 228.4Q433.5 228.4 435.3 229.6Q437.1 230.8 438.2 233.0Q439.2 235.3 439.2 238.3L439.2 238.3Q439.2 241.3 438.2 243.5Q437.1 245.7 435.3 246.9Q433.5 248.2 431.1 248.2L431.1 248.2Q429.3 248.2 428.2 247.5Q427.1 246.9 426.5 246.1Q425.9 245.3 425.5 244.8L425.5 244.8L425.3 244.8L425.3 254.9ZM425.2 238.2L425.2 238.2Q425.2 240.4 425.9 242.0Q426.5 243.7 427.7 244.6Q428.9 245.5 430.7 245.5L430.7 245.5Q432.6 245.5 433.8 244.5Q435.0 243.6 435.7 241.9Q436.3 240.3 436.3 238.2L436.3 238.2Q436.3 236.2 435.7 234.6Q435.0 233.0 433.8 232.0Q432.6 231.1 430.7 231.1L430.7 231.1Q428.9 231.1 427.7 232.0Q426.5 232.9 425.9 234.5Q425.2 236.1 425.2 238.2ZM447.3 248.2L447.3 248.2Q445.5 248.2 444.0 247.5Q442.5 246.8 441.7 245.5Q440.8 244.2 440.8 242.3L440.8 242.3Q440.8 240.7 441.4 239.7Q442.1 238.6 443.2 238.1Q444.2 237.5 445.6 237.2Q446.9 236.9 448.2 236.7L448.2 236.7Q449.9 236.5 451.0 236.4Q452.1 236.3 452.6 236.0Q453.1 235.7 453.1 235.0L453.1 235.0L453.1 234.9Q453.1 233.0 452.1 232.0Q451.1 231.0 449.1 231.0L449.1 231.0Q447.0 231.0 445.8 231.9Q444.6 232.8 444.1 233.9L444.1 233.9L441.3 232.9Q442.1 231.2 443.3 230.2Q444.6 229.2 446.1 228.8Q447.6 228.4 449.0 228.4L449.0 228.4Q449.9 228.4 451.1 228.6Q452.3 228.9 453.4 229.5Q454.6 230.2 455.3 231.6Q456.1 232.9 456.1 235.2L456.1 235.2L456.1 247.8L453.1 247.8L453.1 245.2L453.0 245.2Q452.7 245.8 452.0 246.5Q451.3 247.2 450.1 247.7Q449.0 248.2 447.3 248.2ZM447.8 245.6L447.8 245.6Q449.5 245.6 450.7 244.9Q451.9 244.2 452.5 243.1Q453.1 242.0 453.1 240.8L453.1 240.8L453.1 238.2Q452.9 238.4 452.3 238.6Q451.7 238.7 450.9 238.9Q450.1 239.0 449.3 239.1Q448.5 239.2 448.1 239.3L448.1 239.3Q446.9 239.4 445.9 239.7Q444.9 240.1 444.3 240.7Q443.7 241.4 443.7 242.5L443.7 242.5Q443.7 244.0 444.9 244.8Q446.0 245.6 447.8 245.6ZM467.2 248.2L467.2 248.2Q464.5 248.2 462.6 246.9Q460.6 245.6 459.6 243.4Q458.5 241.2 458.5 238.3L458.5 238.3Q458.5 235.4 459.6 233.2Q460.7 230.9 462.6 229.7Q464.5 228.4 467.1 228.4L467.1 228.4Q469.1 228.4 470.8 229.2Q472.4 229.9 473.4 231.3Q474.4 232.6 474.7 234.4L474.7 234.4L471.8 234.4Q471.4 233.1 470.3 232.1Q469.1 231.1 467.2 231.1L467.2 231.1Q465.5 231.1 464.2 231.9Q462.9 232.8 462.2 234.4Q461.5 236.1 461.5 238.2L461.5 238.2Q461.5 240.4 462.2 242.1Q462.9 243.7 464.2 244.6Q465.4 245.5 467.2 245.5L467.2 245.5Q468.3 245.5 469.3 245.1Q470.2 244.7 470.8 244.0Q471.5 243.2 471.8 242.2L471.8 242.2L474.7 242.2Q474.4 243.9 473.5 245.2Q472.5 246.6 470.9 247.4Q469.3 248.2 467.2 248.2ZM485.0 248.2L485.0 248.2Q482.2 248.2 480.2 246.9Q478.2 245.7 477.1 243.5Q476.1 241.3 476.1 238.4L476.1 238.4Q476.1 235.4 477.1 233.2Q478.2 230.9 480.2 229.7Q482.1 228.4 484.7 228.4L484.7 228.4Q486.2 228.4 487.6 228.9Q489.1 229.4 490.3 230.5Q491.5 231.6 492.2 233.5Q492.9 235.3 492.9 238.0L492.9 238.0L492.9 239.2L478.2 239.2L478.2 236.7L489.9 236.7Q489.9 235.1 489.2 233.8Q488.6 232.5 487.4 231.8Q486.3 231.1 484.7 231.1L484.7 231.1Q482.9 231.1 481.6 231.9Q480.4 232.8 479.7 234.2Q479.0 235.5 479.0 237.1L479.0 237.1L479.0 238.8Q479.0 241.0 479.8 242.5Q480.5 244.0 481.8 244.7Q483.2 245.5 485.0 245.5L485.0 245.5Q486.1 245.5 487.1 245.2Q488.0 244.9 488.7 244.2Q489.4 243.5 489.7 242.5L489.7 242.5L492.6 243.3Q492.1 244.8 491.1 245.9Q490.0 247.0 488.5 247.6Q486.9 248.2 485.0 248.2Z M525.1 235.0L525.1 235.0Q525.1 239.1 523.6 242.0Q522.2 244.9 519.6 246.5Q517.1 248.1 513.8 248.1L513.8 248.1Q510.6 248.1 508.0 246.5Q505.5 244.9 504.0 242.0Q502.6 239.1 502.6 235.0L502.6 235.0Q502.6 231.0 504.0 228.1Q505.5 225.1 508.0 223.5Q510.6 222.0 513.8 222.0L513.8 222.0Q517.1 222.0 519.6 223.5Q522.2 225.1 523.6 228.1Q525.1 231.0 525.1 235.0ZM522.1 235.0L522.1 235.0Q522.1 231.7 521.0 229.5Q519.9 227.2 518.0 226.0Q516.1 224.8 513.8 224.8L513.8 224.8Q511.5 224.8 509.6 226.0Q507.8 227.2 506.7 229.5Q505.6 231.7 505.6 235.0L505.6 235.0Q505.6 238.3 506.7 240.6Q507.8 242.9 509.6 244.1Q511.5 245.2 513.8 245.2L513.8 245.2Q516.1 245.2 518.0 244.1Q519.9 242.9 521.0 240.6Q522.1 238.3 522.1 235.0ZM530.8 236.3L530.8 236.3L530.8 247.8L527.8 247.8L527.8 228.7L530.7 228.7L530.7 231.7L530.9 231.7Q531.6 230.2 533.0 229.3Q534.3 228.4 536.5 228.4L536.5 228.4Q538.4 228.4 539.9 229.2Q541.3 230.0 542.1 231.6Q543.0 233.2 543.0 235.6L543.0 235.6L543.0 247.8L540.0 247.8L540.0 235.8Q540.0 233.6 538.9 232.3Q537.7 231.1 535.6 231.1L535.6 231.1Q534.2 231.1 533.1 231.7Q532.0 232.3 531.4 233.4Q530.8 234.6 530.8 236.3ZM546.3 222.3L549.3 222.3L549.3 247.8L546.3 247.8L546.3 222.3ZM555.6 247.8L552.6 247.8L552.6 228.7L555.6 228.7L555.6 247.8ZM554.1 225.5L554.1 225.5Q553.3 225.5 552.6 224.9Q552.0 224.3 552.0 223.5L552.0 223.5Q552.0 222.7 552.6 222.1Q553.3 221.5 554.1 221.5L554.1 221.5Q555.0 221.5 555.6 222.1Q556.2 222.7 556.2 223.5L556.2 223.5Q556.2 224.3 555.6 224.9Q555.0 225.5 554.1 225.5ZM561.9 236.3L561.9 236.3L561.9 247.8L558.9 247.8L558.9 228.7L561.8 228.7L561.8 231.7L562.0 231.7Q562.7 230.2 564.0 229.3Q565.4 228.4 567.6 228.4L567.6 228.4Q569.5 228.4 571.0 229.2Q572.4 230.0 573.2 231.6Q574.0 233.2 574.0 235.6L574.0 235.6L574.0 247.8L571.1 247.8L571.1 235.8Q571.1 233.6 569.9 232.3Q568.8 231.1 566.7 231.1L566.7 231.1Q565.3 231.1 564.2 231.7Q563.1 232.3 562.5 233.4Q561.9 234.6 561.9 236.3ZM585.4 248.2L585.4 248.2Q582.7 248.2 580.7 246.9Q578.7 245.7 577.6 243.5Q576.5 241.3 576.5 238.4L576.5 238.4Q576.5 235.4 577.6 233.2Q578.7 230.9 580.6 229.7Q582.5 228.4 585.1 228.4L585.1 228.4Q586.6 228.4 588.1 228.9Q589.5 229.4 590.7 230.5Q591.9 231.6 592.6 233.5Q593.3 235.3 593.3 238.0L593.3 238.0L593.3 239.2L578.6 239.2L578.6 236.7L590.3 236.7Q590.3 235.1 589.7 233.8Q589.1 232.5 587.9 231.8Q586.7 231.1 585.1 231.1L585.1 231.1Q583.4 231.1 582.1 231.9Q580.8 232.8 580.1 234.2Q579.4 235.5 579.4 237.1L579.4 237.1L579.4 238.8Q579.4 241.0 580.2 242.5Q581.0 244.0 582.3 244.7Q583.6 245.5 585.4 245.5L585.4 245.5Q586.6 245.5 587.5 245.2Q588.4 244.9 589.1 244.2Q589.8 243.5 590.2 242.5L590.2 242.5L593.0 243.3Q592.6 244.8 591.5 245.9Q590.5 247.0 588.9 247.6Q587.4 248.2 585.4 248.2Z "/></svg>