<svg width="800" height="400" viewBox="0 0 800 400" xmlns="http://www.w3.org/2000/svg"><defs><pattern id="satori_pattern_id_0" x="0" y="0" width="1" height="1" patternUnits="objectBoundingBox"><linearGradient id="satori_biid_0" x1="0" y1="0" x2="0" y2="1"><stop offset="0%" stop-color="rgba(0,0,0,1)"/><stop offset="50%" stop-color="rgba(56,78,117,1)"/><stop offset="100%" stop-color="rgb(77,68,116)"/></linearGradient><rect x="0" y="0" width="800" height="400" fill="url(#satori_biid_0)"/></pattern></defs><mask id="satori_om-id"><rect x="0" y="0" width="800" height="400" fill="#fff"/></mask><rect x="0" y="0" width="800" height="400" fill="url(#satori_pattern_id_0)"/><mask id="satori_om-id-0"><rect x="148" y="136" width="504" height="85" fill="#fff"/></mask><path fill="#e1dbff" d="M174.0 162.2L161.2 201.5L149.7 201.5L167.2 150.6L181.1 150.6L198.7 201.5L187.1 201.5L174.4 162.2L174.0 162.2ZM160.5 189.9L160.5 181.5L187.7 181.5L187.7 189.9L160.5 189.9ZM233.5 174.2L233.5 174.2L223.8 174.8Q223.5 173.6 222.7 172.6Q221.9 171.6 220.5 171.0Q219.2 170.3 217.4 170.3L217.4 170.3Q214.9 170.3 213.2 171.4Q211.5 172.4 211.5 174.1L211.5 174.1Q211.5 175.5 212.6 176.4Q213.7 177.4 216.4 178.0L216.4 178.0L223.3 179.3Q228.9 180.5 231.6 183.0Q234.3 185.6 234.3 189.7L234.3 189.7Q234.3 193.4 232.1 196.3Q229.9 199.1 226.1 200.7Q222.3 202.3 217.3 202.3L217.3 202.3Q209.7 202.3 205.2 199.1Q200.8 195.9 200.0 190.5L200.0 190.5L210.4 189.9Q210.9 192.2 212.7 193.4Q214.5 194.6 217.3 194.6L217.3 194.6Q220.1 194.6 221.8 193.6Q223.5 192.5 223.6 190.8L223.6 190.8Q223.5 189.3 222.3 188.4Q221.1 187.5 218.7 187.0L218.7 187.0L212.0 185.6Q206.5 184.5 203.7 181.8Q201.0 179.0 201.0 174.7L201.0 174.7Q201.0 171.0 203.0 168.4Q205.0 165.7 208.7 164.3Q212.3 162.8 217.2 162.8L217.2 162.8Q224.4 162.8 228.6 165.9Q232.8 169.0 233.5 174.2ZM236.3 163.3L259.3 163.3L259.3 171.3L236.3 171.3L236.3 163.3ZM241.5 191.2L241.5 154.2L252.1 154.2L252.1 189.8Q252.1 191.3 252.6 192.1Q253.0 192.9 253.8 193.2Q254.6 193.5 255.7 193.5L255.7 193.5Q256.5 193.5 257.2 193.4Q257.9 193.2 258.3 193.2L258.3 193.2L260.0 201.0Q259.2 201.3 257.8 201.6Q256.3 202.0 254.3 202.0L254.3 202.0Q250.4 202.2 247.6 201.0Q244.7 199.9 243.1 197.4Q241.5 194.9 241.5 191.2L241.5 191.2ZM274.8 201.5L264.2 201.5L264.2 163.3L274.5 163.3L274.5 170.0L274.9 170.0Q275.9 166.4 278.4 164.6Q280.8 162.8 284.0 162.8L284.0 162.8Q284.8 162.8 285.8 162.9Q286.7 163.0 287.4 163.2L287.4 163.2L287.4 172.6Q286.6 172.3 285.3 172.2Q284.0 172.0 282.9 172.0L282.9 172.0Q280.6 172.0 278.7 173.0Q276.9 174.0 275.8 175.8Q274.8 177.6 274.8 179.9L274.8 179.9L274.8 201.5ZM306.3 202.3L306.3 202.3Q300.5 202.3 296.3 199.8Q292.1 197.3 289.8 192.9Q287.5 188.4 287.5 182.6L287.5 182.6Q287.5 176.7 289.8 172.2Q292.1 167.8 296.3 165.3Q300.5 162.8 306.3 162.8L306.3 162.8Q312.1 162.8 316.3 165.3Q320.5 167.8 322.8 172.2Q325.1 176.7 325.1 182.6L325.1 182.6Q325.1 188.4 322.8 192.9Q320.5 197.3 316.3 199.8Q312.1 202.3 306.3 202.3ZM306.3 194.1L306.3 194.1Q309.0 194.1 310.7 192.6Q312.5 191.1 313.4 188.4Q314.3 185.8 314.3 182.5L314.3 182.5Q314.3 179.2 313.4 176.6Q312.5 174.0 310.7 172.4Q309.0 170.9 306.3 170.9L306.3 170.9Q303.7 170.9 301.9 172.4Q300.1 174.0 299.2 176.6Q298.2 179.2 298.2 182.5L298.2 182.5Q298.2 185.8 299.2 188.4Q300.1 191.1 301.9 192.6Q303.7 194.1 306.3 194.1ZM330.0 150.6L340.6 150.6L340.6 201.5L330.0 201.5L330.0 150.6ZM357.9 202.2L357.9 202.2Q354.3 202.2 351.4 201.0Q348.5 199.7 346.9 197.2Q345.2 194.6 345.2 190.9L345.2 190.9Q345.2 187.7 346.4 185.5Q347.6 183.3 349.6 182.0Q351.6 180.7 354.2 180.0Q356.7 179.4 359.6 179.1L359.6 179.1Q362.9 178.8 364.9 178.4Q367.0 178.1 367.9 177.5Q368.8 176.9 368.8 175.7L368.8 175.7L368.8 175.5Q368.8 173.2 367.3 171.9Q365.9 170.6 363.2 170.6L363.2 170.6Q360.3 170.6 358.6 171.8Q356.9 173.1 356.4 175.0L356.4 175.0L346.6 174.2Q347.3 170.7 349.5 168.1Q351.7 165.6 355.2 164.2Q358.6 162.8 363.2 162.8L363.2 162.8Q366.4 162.8 369.3 163.6Q372.2 164.3 374.5 165.9Q376.8 167.5 378.1 169.9Q379.4 172.4 379.4 175.8L379.4 175.8L379.4 201.5L369.4 201.5L369.4 196.2L369.1 196.2Q368.1 198.0 366.6 199.4Q365.1 200.7 362.9 201.5Q360.7 202.2 357.9 202.2ZM360.9 194.9L360.9 194.9Q363.3 194.9 365.1 194.0Q366.9 193.1 367.9 191.5Q368.9 189.9 368.9 187.9L368.9 187.9L368.9 183.8Q368.4 184.1 367.5 184.4Q366.7 184.7 365.6 184.9Q364.5 185.1 363.5 185.3Q362.4 185.4 361.5 185.5L361.5 185.5Q359.7 185.8 358.3 186.4Q356.9 187.0 356.1 188.0Q355.3 189.0 355.3 190.5L355.3 190.5Q355.3 192.7 356.9 193.8Q358.5 194.9 360.9 194.9ZM396.3 201.5L385.8 201.5L385.8 150.6L396.4 150.6L396.4 169.8L396.7 169.8Q397.4 168.2 398.8 166.6Q400.1 165.0 402.3 163.9Q404.4 162.8 407.6 162.8L407.6 162.8Q411.8 162.8 415.3 165.0Q418.8 167.2 421.0 171.6Q423.1 175.9 423.1 182.5L423.1 182.5Q423.1 188.9 421.0 193.3Q419.0 197.6 415.5 199.9Q411.9 202.1 407.6 202.1L407.6 202.1Q404.5 202.1 402.4 201.1Q400.2 200.1 398.8 198.5Q397.5 197.0 396.7 195.4L396.7 195.4L396.3 195.4L396.3 201.5ZM396.2 182.4L396.2 182.4Q396.2 185.8 397.1 188.4Q398.1 190.9 399.9 192.3Q401.7 193.7 404.2 193.7L404.2 193.7Q406.8 193.7 408.6 192.3Q410.4 190.9 411.3 188.3Q412.3 185.8 412.3 182.4L412.3 182.4Q412.3 179.1 411.3 176.6Q410.4 174.1 408.6 172.7Q406.8 171.3 404.2 171.3L404.2 171.3Q401.6 171.3 399.9 172.6Q398.1 174.0 397.1 176.5Q396.2 179.0 396.2 182.4Z M483.2 165.3L472.8 165.3Q472.5 162.2 470.3 160.6Q468.0 158.9 464.1 158.9L464.1 158.9Q461.5 158.9 459.7 159.6Q457.9 160.4 456.9 161.7Q456.0 163.0 456.0 164.6L456.0 164.6Q455.9 166.0 456.5 167.0Q457.2 168.0 458.3 168.7Q459.4 169.5 460.9 170.0Q462.4 170.5 464.0 170.9L464.0 170.9L468.6 172.0Q471.9 172.8 474.7 174.0Q477.5 175.2 479.5 177.1Q481.6 178.9 482.7 181.3Q483.8 183.8 483.9 187.0L483.9 187.0Q483.8 191.7 481.5 195.1Q479.1 198.5 474.7 200.4Q470.3 202.2 464.1 202.2L464.1 202.2Q457.9 202.2 453.4 200.4Q448.8 198.5 446.3 194.7Q443.7 191.0 443.6 185.5L443.6 185.5L454.0 185.5Q454.2 188.1 455.5 189.8Q456.8 191.5 459.0 192.4Q461.2 193.2 464.0 193.2L464.0 193.2Q466.7 193.2 468.7 192.4Q470.8 191.6 471.9 190.2Q473.0 188.8 473.0 187.0L473.0 187.0Q473.0 185.2 472.0 184.1Q471.0 182.9 469.1 182.1Q467.1 181.3 464.3 180.6L464.3 180.6L458.8 179.2Q452.4 177.6 448.6 174.3Q444.9 171.0 444.9 165.3L444.9 165.3Q444.9 160.7 447.4 157.2Q449.9 153.8 454.3 151.9Q458.6 149.9 464.2 149.9L464.2 149.9Q469.9 149.9 474.1 151.9Q478.4 153.8 480.7 157.2Q483.1 160.7 483.2 165.3L483.2 165.3ZM486.2 163.3L509.2 163.3L509.2 171.3L486.2 171.3L486.2 163.3ZM491.4 191.2L491.4 154.2L502.0 154.2L502.0 189.8Q502.0 191.3 502.4 192.1Q502.9 192.9 503.7 193.2Q504.5 193.5 505.6 193.5L505.6 193.5Q506.3 193.5 507.1 193.4Q507.8 193.2 508.2 193.2L508.2 193.2L509.9 201.0Q509.1 201.3 507.6 201.6Q506.2 202.0 504.1 202.0L504.1 202.0Q500.3 202.2 497.4 201.0Q494.6 199.9 493.0 197.4Q491.4 194.9 491.4 191.2L491.4 191.2ZM538.5 185.3L538.5 185.3L538.5 163.3L549.1 163.3L549.1 201.5L539.0 201.5L539.0 194.6L538.6 194.6Q537.3 197.9 534.3 200.0Q531.3 202.0 527.0 202.0L527.0 202.0Q523.2 202.0 520.2 200.3Q517.3 198.5 515.7 195.3Q514.1 192.1 514.1 187.6L514.1 187.6L514.1 163.3L524.6 163.3L524.6 185.8Q524.7 189.1 526.5 191.1Q528.3 193.1 531.3 193.1L531.3 193.1Q533.2 193.1 534.8 192.2Q536.5 191.3 537.5 189.6Q538.6 187.8 538.5 185.3ZM569.7 202.1L569.7 202.1Q565.3 202.1 561.8 199.9Q558.3 197.6 556.2 193.3Q554.2 188.9 554.2 182.5L554.2 182.5Q554.2 175.9 556.3 171.6Q558.4 167.2 561.9 165.0Q565.4 162.8 569.6 162.8L569.6 162.8Q572.8 162.8 575.0 163.9Q577.1 165.0 578.5 166.6Q579.8 168.2 580.5 169.8L580.5 169.8L580.8 169.8L580.8 150.6L591.4 150.6L591.4 201.5L580.9 201.5L580.9 195.4L580.5 195.4Q579.7 197.0 578.4 198.5Q577.0 200.1 574.9 201.1Q572.7 202.1 569.7 202.1ZM573.0 193.7L573.0 193.7Q575.6 193.7 577.3 192.3Q579.1 190.9 580.1 188.4Q581.0 185.8 581.0 182.4L581.0 182.4Q581.0 179.0 580.1 176.5Q579.1 174.0 577.4 172.6Q575.6 171.3 573.0 171.3L573.0 171.3Q570.4 171.3 568.6 172.7Q566.8 174.1 565.9 176.6Q565.0 179.1 565.0 182.4L565.0 182.4Q565.0 185.8 565.9 188.3Q566.8 190.9 568.6 192.3Q570.4 193.7 573.0 193.7ZM608.6 201.5L598.1 201.5L598.1 163.3L608.6 163.3L608.6 201.5ZM603.4 158.4L603.4 158.4Q601.0 158.4 599.3 156.8Q597.7 155.3 597.7 153.0L597.7 153.0Q597.7 150.9 599.3 149.3Q601.0 147.7 603.4 147.7L603.4 147.7Q605.7 147.7 607.4 149.3Q609.1 150.9 609.1 153.0L609.1 153.0Q609.1 155.3 607.4 156.8Q605.7 158.4 603.4 158.4ZM632.3 202.3L632.3 202.3Q626.6 202.3 622.3 199.8Q618.1 197.3 615.8 192.9Q613.6 188.4 613.6 182.6L613.6 182.6Q613.6 176.7 615.8 172.2Q618.1 167.8 622.3 165.3Q626.6 162.8 632.3 162.8L632.3 162.8Q638.1 162.8 642.4 165.3Q646.6 167.8 648.9 172.2Q651.1 176.7 651.1 182.6L651.1 182.6Q651.1 188.4 648.9 192.9Q646.6 197.3 642.4 199.8Q638.1 202.3 632.3 202.3ZM632.4 194.1L632.4 194.1Q635.0 194.1 636.8 192.6Q638.6 191.1 639.5 188.4Q640.4 185.8 640.4 182.5L640.4 182.5Q640.4 179.2 639.5 176.6Q638.6 174.0 636.8 172.4Q635.0 170.9 632.4 170.9L632.4 170.9Q629.7 170.9 627.9 172.4Q626.1 174.0 625.2 176.6Q624.3 179.2 624.3 182.5L624.3 182.5Q624.3 185.8 625.2 188.4Q626.1 191.1 627.9 192.6Q629.7 194.1 632.4 194.1Z "/><mask id="satori_om-id-1"><rect x="121" y="221" width="558" height="43" fill="#fff"/></mask><path fill="#e1dbff" d="M131.9 253.8L131.9 253.8L124.1 253.8L124.1 228.3L132.3 228.3Q136.0 228.3 138.6 229.8Q141.3 231.4 142.7 234.2Q144.1 237.0 144.1 241.0L144.1 241.0Q144.1 245.0 142.7 247.8Q141.2 250.7 138.5 252.2Q135.8 253.8 131.9 253.8ZM127.2 231.0L127.2 251.0L131.7 251.0Q134.9 251.0 137.0 249.8Q139.0 248.6 140.1 246.3Q141.1 244.1 141.1 241.0L141.1 241.0Q141.1 237.9 140.1 235.7Q139.1 233.4 137.1 232.2Q135.1 231.0 132.1 231.0L132.1 231.0L127.2 231.0ZM149.8 253.8L146.8 253.8L146.8 234.7L149.8 234.7L149.8 253.8ZM148.3 231.5L148.3 231.5Q147.5 231.5 146.9 230.9Q146.2 230.3 146.2 229.5L146.2 229.5Q146.2 228.7 146.9 228.1Q147.5 227.5 148.3 227.5L148.3 227.5Q149.2 227.5 149.8 228.1Q150.4 228.7 150.4 229.5L150.4 229.5Q150.4 230.3 149.8 230.9Q149.2 231.5 148.3 231.5ZM160.8 261.3L160.8 261.3Q158.7 261.3 157.2 260.8Q155.7 260.2 154.7 259.4Q153.6 258.5 153.0 257.5L153.0 257.5L155.4 255.8Q155.8 256.4 156.4 257.0Q157.0 257.7 158.1 258.2Q159.1 258.7 160.8 258.7L160.8 258.7Q163.2 258.7 164.7 257.6Q166.2 256.5 166.2 254.1L166.2 254.1L166.2 250.2L165.9 250.2Q165.6 250.8 165.0 251.5Q164.4 252.3 163.3 252.9Q162.2 253.5 160.4 253.5L160.4 253.5Q158.0 253.5 156.2 252.4Q154.4 251.3 153.3 249.2Q152.2 247.1 152.2 244.1L152.2 244.1Q152.2 241.2 153.3 239.0Q154.3 236.8 156.2 235.6Q158.0 234.4 160.4 234.4L160.4 234.4Q162.3 234.4 163.4 235.0Q164.5 235.7 165.1 236.4Q165.6 237.2 166.0 237.7L166.0 237.7L166.3 237.7L166.3 234.7L169.1 234.7L169.1 254.3Q169.1 256.8 168.0 258.3Q166.9 259.9 165.0 260.6Q163.1 261.3 160.8 261.3ZM160.8 250.8L160.8 250.8Q162.5 250.8 163.7 250.0Q165.0 249.2 165.6 247.7Q166.2 246.2 166.2 244.1L166.2 244.1Q166.2 242.0 165.6 240.4Q165.0 238.8 163.8 238.0Q162.5 237.1 160.8 237.1L160.8 237.1Q158.9 237.1 157.6 238.0Q156.4 238.9 155.8 240.5Q155.2 242.1 155.2 244.1L155.2 244.1Q155.2 246.1 155.8 247.6Q156.4 249.1 157.7 250.0Q158.9 250.8 160.8 250.8ZM175.4 253.8L172.5 253.8L172.5 234.7L175.4 234.7L175.4 253.8ZM174.0 231.5L174.0 231.5Q173.1 231.5 172.5 230.9Q171.9 230.3 171.9 229.5L171.9 229.5Q171.9 228.7 172.5 228.1Q173.1 227.5 174.0 227.5L174.0 227.5Q174.8 227.5 175.4 228.1Q176.1 228.7 176.1 229.5L176.1 229.5Q176.1 230.3 175.4 230.9Q174.8 231.5 174.0 231.5ZM177.2 234.7L187.1 234.7L187.1 237.2L177.2 237.2L177.2 234.7ZM180.1 249.1L180.1 230.1L183 230.1L183 248.3Q183 249.5 183.4 250.1Q183.7 250.8 184.3 251.0Q184.9 251.2 185.5 251.2L185.5 251.2Q186.0 251.2 186.3 251.1Q186.6 251.1 186.8 251.0L186.8 251.0L187.4 253.7Q187.1 253.8 186.6 253.9Q186.1 254.0 185.2 254.0L185.2 254.0Q184.0 254.0 182.8 253.5Q181.6 252.9 180.8 251.8Q180.1 250.8 180.1 249.1L180.1 249.1ZM195.1 254.2L195.1 254.2Q193.3 254.2 191.8 253.5Q190.3 252.8 189.5 251.5Q188.6 250.2 188.6 248.3L188.6 248.3Q188.6 246.7 189.3 245.7Q189.9 244.6 191.0 244.1Q192.1 243.5 193.4 243.2Q194.7 242.9 196.0 242.7L196.0 242.7Q197.8 242.5 198.8 242.4Q199.9 242.3 200.4 242.0Q200.9 241.7 200.9 241.0L200.9 241.0L200.9 240.9Q200.9 239.0 199.9 238.0Q198.9 237.0 196.9 237.0L196.9 237.0Q194.8 237.0 193.6 237.9Q192.4 238.8 191.9 239.9L191.9 239.9L189.2 238.9Q189.9 237.2 191.1 236.2Q192.4 235.2 193.9 234.8Q195.4 234.4 196.8 234.4L196.8 234.4Q197.7 234.4 198.9 234.6Q200.1 234.9 201.3 235.5Q202.4 236.2 203.1 237.6Q203.9 238.9 203.9 241.2L203.9 241.2L203.9 253.8L200.9 253.8L200.9 251.2L200.8 251.2Q200.5 251.8 199.8 252.5Q199.1 253.2 197.9 253.7Q196.8 254.2 195.1 254.2ZM195.6 251.6L195.6 251.6Q197.3 251.6 198.5 250.9Q199.7 250.2 200.3 249.1Q200.9 248.0 200.9 246.8L200.9 246.8L200.9 244.2Q200.7 244.4 200.1 244.6Q199.5 244.7 198.7 244.9Q197.9 245.0 197.1 245.1Q196.3 245.2 195.9 245.3L195.9 245.3Q194.7 245.4 193.7 245.7Q192.7 246.1 192.1 246.7Q191.5 247.4 191.5 248.5L191.5 248.5Q191.5 250.0 192.7 250.8Q193.8 251.6 195.6 251.6ZM207.2 228.3L210.2 228.3L210.2 253.8L207.2 253.8L207.2 228.3Z M221.8 253.8L221.8 228.3L225.5 228.3L234.1 249.4L234.4 249.4L243.1 228.3L246.7 228.3L246.7 253.8L243.9 253.8L243.9 234.4L243.6 234.4L235.7 253.8L232.9 253.8L224.9 234.4L224.7 234.4L224.7 253.8L221.8 253.8ZM256.1 254.2L256.1 254.2Q254.3 254.2 252.8 253.5Q251.4 252.8 250.5 251.5Q249.6 250.2 249.6 248.3L249.6 248.3Q249.6 246.7 250.3 245.7Q250.9 244.6 252.0 244.1Q253.1 243.5 254.4 243.2Q255.7 242.9 257.0 242.7L257.0 242.7Q258.8 242.5 259.8 242.4Q260.9 242.3 261.4 242.0Q261.9 241.7 261.9 241.0L261.9 241.0L261.9 240.9Q261.9 239.0 260.9 238.0Q259.9 237.0 257.9 237.0L257.9 237.0Q255.8 237.0 254.6 237.9Q253.4 238.8 252.9 239.9L252.9 239.9L250.2 238.9Q250.9 237.2 252.2 236.2Q253.4 235.2 254.9 234.8Q256.4 234.4 257.8 234.4L257.8 234.4Q258.7 234.4 259.9 234.6Q261.1 234.9 262.3 235.5Q263.4 236.2 264.1 237.6Q264.9 238.9 264.9 241.2L264.9 241.2L264.9 253.8L261.9 253.8L261.9 251.2L261.8 251.2Q261.5 251.8 260.8 252.5Q260.1 253.2 258.9 253.7Q257.8 254.2 256.1 254.2ZM256.6 251.6L256.6 251.6Q258.3 251.6 259.5 250.9Q260.7 250.2 261.3 249.1Q261.9 248.0 261.9 246.8L261.9 246.8L261.9 244.2Q261.8 244.4 261.1 244.6Q260.5 244.7 259.7 244.9Q258.9 245.0 258.1 245.1Q257.3 245.2 256.9 245.3L256.9 245.3Q255.7 245.4 254.7 245.7Q253.8 246.1 253.1 246.7Q252.5 247.4 252.5 248.5L252.5 248.5Q252.5 250.0 253.7 250.8Q254.8 251.6 256.6 251.6ZM271.2 253.8L268.2 253.8L268.2 234.7L271.1 234.7L271.1 237.6L271.3 237.6Q271.8 236.1 273.2 235.3Q274.5 234.4 276.2 234.4L276.2 234.4Q276.6 234.4 277.1 234.4Q277.5 234.4 277.8 234.4L277.8 234.4L277.8 237.4Q277.6 237.4 277.1 237.3Q276.6 237.2 276.0 237.2L276.0 237.2Q274.6 237.2 273.5 237.8Q272.4 238.4 271.8 239.4Q271.2 240.4 271.2 241.7L271.2 241.7L271.2 253.8ZM285.4 243.7L282.0 246.8L282.0 243.2L282.6 243.2L290.9 234.7L294.5 234.7L285.6 243.7L285.4 243.7ZM282.2 253.8L279.3 253.8L279.3 228.3L282.2 228.3L282.2 253.8ZM295.1 253.8L291.4 253.8L283.9 244.3L286.0 242.3L295.1 253.8ZM303.5 254.2L303.5 254.2Q300.8 254.2 298.8 252.9Q296.8 251.7 295.7 249.5Q294.6 247.3 294.6 244.4L294.6 244.4Q294.6 241.4 295.7 239.2Q296.8 236.9 298.7 235.7Q300.6 234.4 303.2 234.4L303.2 234.4Q304.7 234.4 306.2 234.9Q307.6 235.4 308.8 236.5Q310.0 237.6 310.7 239.5Q311.4 241.3 311.4 244.0L311.4 244.0L311.4 245.2L296.7 245.2L296.7 242.7L308.4 242.7Q308.4 241.1 307.8 239.8Q307.2 238.5 306.0 237.8Q304.8 237.1 303.2 237.1L303.2 237.1Q301.5 237.1 300.2 237.9Q298.9 238.8 298.2 240.2Q297.6 241.5 297.6 243.1L297.6 243.1L297.6 244.8Q297.6 247.0 298.3 248.5Q299.1 250.0 300.4 250.7Q301.7 251.5 303.5 251.5L303.5 251.5Q304.7 251.5 305.6 251.2Q306.6 250.9 307.2 250.2Q307.9 249.5 308.3 248.5L308.3 248.5L311.1 249.3Q310.7 250.8 309.6 251.9Q308.6 253.0 307.0 253.6Q305.5 254.2 303.5 254.2ZM312.3 234.7L322.2 234.7L322.2 237.2L312.3 237.2L312.3 234.7ZM315.2 249.1L315.2 230.1L318.1 230.1L318.1 248.3Q318.1 249.5 318.5 250.1Q318.9 250.8 319.4 251.0Q320.0 251.2 320.7 251.2L320.7 251.2Q321.1 251.2 321.5 251.1Q321.8 251.1 322.0 251.0L322.0 251.0L322.5 253.7Q322.3 253.8 321.7 253.9Q321.2 254.0 320.4 254.0L320.4 254.0Q319.1 254.0 317.9 253.5Q316.7 252.9 316.0 251.8Q315.2 250.8 315.2 249.1L315.2 249.1ZM327.6 253.8L324.6 253.8L324.6 234.7L327.6 234.7L327.6 253.8ZM326.1 231.5L326.1 231.5Q325.3 231.5 324.6 230.9Q324.0 230.3 324.0 229.5L324.0 229.5Q324.0 228.7 324.6 228.1Q325.3 227.5 326.1 227.5L326.1 227.5Q327.0 227.5 327.6 228.1Q328.2 228.7 328.2 229.5L328.2 229.5Q328.2 230.3 327.6 230.9Q327.0 231.5 326.1 231.5ZM333.9 242.3L333.9 242.3L333.9 253.8L330.9 253.8L330.9 234.7L333.8 234.7L333.8 237.7L334.0 237.7Q334.7 236.2 336.0 235.3Q337.4 234.4 339.6 234.4L339.6 234.4Q341.5 234.4 343.0 235.2Q344.4 236.0 345.2 237.6Q346.0 239.2 346.0 241.6L346.0 241.6L346.0 253.8L343.1 253.8L343.1 241.8Q343.1 239.6 341.9 238.3Q340.8 237.1 338.7 237.1L338.7 237.1Q337.3 237.1 336.2 237.7Q335.1 238.3 334.5 239.4Q333.9 240.6 333.9 242.3ZM357.1 261.3L357.1 261.3Q355.0 261.3 353.5 260.8Q351.9 260.2 350.9 259.4Q349.9 258.5 349.3 257.5L349.3 257.5L351.6 255.8Q352.0 256.4 352.7 257.0Q353.3 257.7 354.3 258.2Q355.4 258.7 357.1 258.7L357.1 258.7Q359.4 258.7 360.9 257.6Q362.4 256.5 362.4 254.1L362.4 254.1L362.4 250.2L362.2 250.2Q361.9 250.8 361.3 251.5Q360.7 252.3 359.6 252.9Q358.5 253.5 356.6 253.5L356.6 253.5Q354.3 253.5 352.5 252.4Q350.6 251.3 349.6 249.2Q348.5 247.1 348.5 244.1L348.5 244.1Q348.5 241.2 349.5 239.0Q350.6 236.8 352.4 235.6Q354.3 234.4 356.7 234.4L356.7 234.4Q358.5 234.4 359.6 235.0Q360.7 235.7 361.3 236.4Q361.9 237.2 362.2 237.7L362.2 237.7L362.5 237.7L362.5 234.7L365.4 234.7L365.4 254.3Q365.4 256.8 364.3 258.3Q363.1 259.9 361.3 260.6Q359.4 261.3 357.1 261.3ZM357.0 250.8L357.0 250.8Q358.8 250.8 360.0 250.0Q361.2 249.2 361.9 247.7Q362.5 246.2 362.5 244.1L362.5 244.1Q362.5 242.0 361.9 240.4Q361.2 238.8 360.0 238.0Q358.8 237.1 357.0 237.1L357.0 237.1Q355.2 237.1 353.9 238.0Q352.7 238.9 352.1 240.5Q351.5 242.1 351.5 244.1L351.5 244.1Q351.5 246.1 352.1 247.6Q352.7 249.1 353.9 250.0Q355.2 250.8 357.0 250.8Z M384.6 254.1L384.6 254.1Q382.1 254.1 380.3 253.2Q378.4 252.3 377.5 250.7Q376.5 249.1 376.5 247.0L376.5 247.0Q376.5 245.4 377.2 244.2Q377.8 242.9 379.0 241.9Q380.2 240.8 381.8 239.7L381.8 239.7L385.5 237.0Q386.6 236.3 387.2 235.5Q387.9 234.7 387.9 233.4L387.9 233.4Q387.9 232.4 387.0 231.5Q386.2 230.6 384.8 230.6L384.8 230.6Q383.8 230.6 383.1 231.1Q382.3 231.6 381.9 232.3Q381.5 233.1 381.5 233.9L381.5 233.9Q381.5 234.8 382.0 235.7Q382.5 236.6 383.3 237.5Q384.0 238.5 384.8 239.5L384.8 239.5L396.5 253.8L393.0 253.8L383.3 242.1Q382.0 240.5 380.9 239.2Q379.8 237.9 379.2 236.6Q378.5 235.3 378.5 233.8L378.5 233.8Q378.5 232.1 379.3 230.8Q380.1 229.5 381.4 228.8Q382.8 228.1 384.7 228.1L384.7 228.1Q386.6 228.1 388.0 228.8Q389.4 229.5 390.1 230.7Q390.9 232.0 390.9 233.4L390.9 233.4Q390.9 235.2 389.9 236.5Q389.0 237.9 387.5 239.0L387.5 239.0L382.4 242.8Q380.7 244.1 380.1 245.3Q379.5 246.5 379.5 247.0L379.5 247.0Q379.5 248.2 380.1 249.2Q380.7 250.3 381.8 250.9Q383.0 251.5 384.5 251.5L384.5 251.5Q385.9 251.5 387.3 250.9Q388.7 250.3 389.8 249.1Q390.9 248.0 391.5 246.3Q392.2 244.7 392.2 242.6L392.2 242.6L395.0 242.6Q395.0 245.2 394.4 246.8Q393.9 248.4 393.1 249.3Q392.4 250.2 391.9 250.6L391.9 250.6Q391.8 250.8 391.7 251.0Q391.5 251.2 391.4 251.4L391.4 251.4Q390.2 252.8 388.3 253.4Q386.4 254.1 384.6 254.1Z M413.8 253.8L410.6 253.8L403.7 228.3L406.8 228.3L412.1 249.0L412.4 249.0L417.8 228.3L421.3 228.3L426.7 249.0L426.9 249.0L432.2 228.3L435.4 228.3L428.4 253.8L425.2 253.8L419.6 233.5L419.4 233.5L413.8 253.8ZM443.0 254.2L443.0 254.2Q440.3 254.2 438.3 252.9Q436.3 251.7 435.2 249.5Q434.1 247.3 434.1 244.4L434.1 244.4Q434.1 241.4 435.2 239.2Q436.3 236.9 438.2 235.7Q440.1 234.4 442.7 234.4L442.7 234.4Q444.2 234.4 445.7 234.9Q447.1 235.4 448.3 236.5Q449.5 237.6 450.2 239.5Q450.9 241.3 450.9 244.0L450.9 244.0L450.9 245.2L436.2 245.2L436.2 242.7L447.9 242.7Q447.9 241.1 447.3 239.8Q446.7 238.5 445.5 237.8Q444.3 237.1 442.7 237.1L442.7 237.1Q441.0 237.1 439.7 237.9Q438.4 238.8 437.7 240.2Q437.1 241.5 437.1 243.1L437.1 243.1L437.1 244.8Q437.1 247.0 437.8 248.5Q438.6 250.0 439.9 250.7Q441.2 251.5 443.0 251.5L443.0 251.5Q444.2 251.5 445.1 251.2Q446.1 250.9 446.7 250.2Q447.4 249.5 447.8 248.5L447.8 248.5L450.6 249.3Q450.2 250.8 449.1 251.9Q448.1 253.0 446.5 253.6Q445.0 254.2 443.0 254.2ZM456.6 253.8L453.8 253.8L453.8 228.3L456.7 228.3L456.7 237.7L457.0 237.7Q457.3 237.2 457.9 236.4Q458.5 235.7 459.5 235.0Q460.6 234.4 462.5 234.4L462.5 234.4Q464.9 234.4 466.7 235.6Q468.6 236.8 469.6 239.0Q470.7 241.3 470.7 244.3L470.7 244.3Q470.7 247.3 469.6 249.5Q468.6 251.7 466.8 252.9Q464.9 254.2 462.5 254.2L462.5 254.2Q460.7 254.2 459.6 253.5Q458.5 252.9 457.9 252.1Q457.3 251.3 457.0 250.8L457.0 250.8L456.6 250.8L456.6 253.8ZM456.7 244.2L456.7 244.2Q456.7 246.4 457.3 248.0Q457.9 249.7 459.2 250.6Q460.4 251.5 462.1 251.5L462.1 251.5Q464.0 251.5 465.2 250.5Q466.5 249.6 467.1 247.9Q467.7 246.3 467.7 244.2L467.7 244.2Q467.7 242.2 467.1 240.6Q466.5 239.0 465.3 238.0Q464.0 237.1 462.1 237.1L462.1 237.1Q460.4 237.1 459.1 238.0Q457.9 238.9 457.3 240.5Q456.7 242.1 456.7 244.2Z M491.0 253.8L491.0 253.8L483.2 253.8L483.2 228.3L491.4 228.3Q495.1 228.3 497.7 229.8Q500.3 231.4 501.7 234.2Q503.1 237.0 503.1 241.0L503.1 241.0Q503.1 245.0 501.7 247.8Q500.3 250.7 497.6 252.2Q494.9 253.8 491.0 253.8ZM486.2 231.0L486.2 251.0L490.8 251.0Q494.0 251.0 496.0 249.8Q498.1 248.6 499.1 246.3Q500.2 244.1 500.2 241.0L500.2 241.0Q500.2 237.9 499.2 235.7Q498.1 233.4 496.1 232.2Q494.1 231.0 491.2 231.0L491.2 231.0L486.2 231.0ZM513.9 254.2L513.9 254.2Q511.2 254.2 509.2 252.9Q507.2 251.7 506.1 249.5Q505.0 247.3 505.0 244.4L505.0 244.4Q505.0 241.4 506.1 239.2Q507.2 236.9 509.1 235.7Q511.0 234.4 513.6 234.4L513.6 234.4Q515.1 234.4 516.6 234.9Q518.0 235.4 519.2 236.5Q520.4 237.6 521.1 239.5Q521.8 241.3 521.8 244.0L521.8 244.0L521.8 245.2L507.1 245.2L507.1 242.7L518.8 242.7Q518.8 241.1 518.2 239.8Q517.6 238.5 516.4 237.8Q515.2 237.1 513.6 237.1L513.6 237.1Q511.9 237.1 510.6 237.9Q509.3 238.8 508.6 240.2Q508.0 241.5 508.0 243.1L508.0 243.1L508.0 244.8Q508.0 247.0 508.7 248.5Q509.5 250.0 510.8 250.7Q512.1 251.5 513.9 251.5L513.9 251.5Q515.1 251.5 516.0 251.2Q517.0 250.9 517.6 250.2Q518.3 249.5 518.7 248.5L518.7 248.5L521.5 249.3Q521.1 250.8 520.0 251.9Q519.0 253.0 517.4 253.6Q515.9 254.2 513.9 254.2ZM536.1 234.7L539.3 234.7L532.3 253.8L529.3 253.8L522.2 234.7L525.4 234.7L530.7 249.9L530.9 249.9L536.1 234.7ZM548.5 254.2L548.5 254.2Q545.7 254.2 543.7 252.9Q541.7 251.7 540.7 249.5Q539.6 247.3 539.6 244.4L539.6 244.4Q539.6 241.4 540.7 239.2Q541.7 236.9 543.7 235.7Q545.6 234.4 548.2 234.4L548.2 234.4Q549.7 234.4 551.1 234.9Q552.6 235.4 553.8 236.5Q555.0 237.6 555.7 239.5Q556.4 241.3 556.4 244.0L556.4 244.0L556.4 245.2L541.7 245.2L541.7 242.7L553.4 242.7Q553.4 241.1 552.8 239.8Q552.1 238.5 551.0 237.8Q549.8 237.1 548.2 237.1L548.2 237.1Q546.4 237.1 545.2 237.9Q543.9 238.8 543.2 240.2Q542.5 241.5 542.5 243.1L542.5 243.1L542.5 244.8Q542.5 247.0 543.3 248.5Q544.0 250.0 545.4 250.7Q546.7 251.5 548.5 251.5L548.5 251.5Q549.7 251.5 550.6 251.2Q551.5 250.9 552.2 250.2Q552.9 249.5 553.3 248.5L553.3 248.5L556.1 249.3Q555.7 250.8 554.6 251.9Q553.5 253.0 552.0 253.6Q550.4 254.2 548.5 254.2ZM558.9 228.3L561.8 228.3L561.8 253.8L558.9 253.8L558.9 228.3ZM572.9 254.2L572.9 254.2Q570.4 254.2 568.4 252.9Q566.5 251.7 565.4 249.5Q564.3 247.3 564.3 244.3L564.3 244.3Q564.3 241.3 565.4 239.1Q566.5 236.9 568.4 235.7Q570.4 234.4 572.9 234.4L572.9 234.4Q575.5 234.4 577.5 235.7Q579.4 236.9 580.5 239.1Q581.6 241.3 581.6 244.3L581.6 244.3Q581.6 247.3 580.5 249.5Q579.4 251.7 577.5 252.9Q575.5 254.2 572.9 254.2ZM572.9 251.5L572.9 251.5Q574.9 251.5 576.2 250.5Q577.4 249.5 578.0 247.9Q578.7 246.2 578.7 244.3L578.7 244.3Q578.7 242.4 578.0 240.7Q577.4 239.1 576.2 238.1Q574.9 237.1 572.9 237.1L572.9 237.1Q571.0 237.1 569.7 238.1Q568.4 239.1 567.8 240.7Q567.2 242.4 567.2 244.3L567.2 244.3Q567.2 246.2 567.8 247.9Q568.4 249.5 569.7 250.5Q571.0 251.5 572.9 251.5ZM587.0 260.9L584.1 260.9L584.1 234.7L586.9 234.7L586.9 237.7L587.2 237.7Q587.6 237.2 588.1 236.4Q588.7 235.7 589.8 235.0Q590.9 234.4 592.8 234.4L592.8 234.4Q595.2 234.4 597.0 235.6Q598.9 236.8 599.9 239.0Q600.9 241.3 600.9 244.3L600.9 244.3Q600.9 247.3 599.9 249.5Q598.9 251.7 597.0 252.9Q595.2 254.2 592.8 254.2L592.8 254.2Q591.0 254.2 589.9 253.5Q588.8 252.9 588.2 252.1Q587.6 251.3 587.2 250.8L587.2 250.8L587.0 250.8L587.0 260.9ZM586.9 244.2L586.9 244.2Q586.9 246.4 587.6 248.0Q588.2 249.7 589.4 250.6Q590.6 251.5 592.4 251.5L592.4 251.5Q594.3 251.5 595.5 250.5Q596.7 249.6 597.4 247.9Q598.0 246.3 598.0 244.2L598.0 244.2Q598.0 242.2 597.4 240.6Q596.8 239.0 595.5 238.0Q594.3 237.1 592.4 237.1L592.4 237.1Q590.6 237.1 589.4 238.0Q588.2 238.9 587.6 240.5Q586.9 242.1 586.9 244.2ZM606.3 253.8L603.4 253.8L603.4 234.7L606.2 234.7L606.2 237.7L606.5 237.7Q607.1 236.1 608.4 235.3Q609.7 234.4 611.6 234.4L611.6 234.4Q613.5 234.4 614.7 235.3Q616.0 236.1 616.7 237.7L616.7 237.7L616.9 237.7Q617.6 236.2 619.1 235.3Q620.6 234.4 622.6 234.4L622.6 234.4Q625.2 234.4 626.8 236.0Q628.4 237.6 628.4 241.0L628.4 241.0L628.4 253.8L625.5 253.8L625.5 241.0Q625.5 238.9 624.4 238.0Q623.2 237.1 621.6 237.1L621.6 237.1Q619.6 237.1 618.5 238.3Q617.4 239.5 617.4 241.3L617.4 241.3L617.4 253.8L614.4 253.8L614.4 240.7Q614.4 239.1 613.4 238.1Q612.3 237.1 610.6 237.1L610.6 237.1Q609.5 237.1 608.5 237.7Q607.5 238.3 606.9 239.3Q606.3 240.4 606.3 241.8L606.3 241.8L606.3 253.8ZM639.8 254.2L639.8 254.2Q637.1 254.2 635.1 252.9Q633.1 251.7 632.0 249.5Q630.9 247.3 630.9 244.4L630.9 244.4Q630.9 241.4 632.0 239.2Q633.1 236.9 635.0 235.7Q636.9 234.4 639.5 234.4L639.5 234.4Q641.0 234.4 642.5 234.9Q643.9 235.4 645.1 236.5Q646.3 237.6 647.0 239.5Q647.7 241.3 647.7 244.0L647.7 244.0L647.7 245.2L633.0 245.2L633.0 242.7L644.7 242.7Q644.7 241.1 644.1 239.8Q643.5 238.5 642.3 237.8Q641.1 237.1 639.5 237.1L639.5 237.1Q637.8 237.1 636.5 237.9Q635.2 238.8 634.5 240.2Q633.9 241.5 633.9 243.1L633.9 243.1L633.9 244.8Q633.9 247.0 634.6 248.5Q635.4 250.0 636.7 250.7Q638.0 251.5 639.8 251.5L639.8 251.5Q641.0 251.5 641.9 251.2Q642.9 250.9 643.5 250.2Q644.2 249.5 644.6 248.5L644.6 248.5L647.4 249.3Q647.0 250.8 645.9 251.9Q644.9 253.0 643.3 253.6Q641.8 254.2 639.8 254.2ZM653.1 242.3L653.1 242.3L653.1 253.8L650.2 253.8L650.2 234.7L653.0 234.7L653.0 237.7L653.3 237.7Q654.0 236.2 655.3 235.3Q656.7 234.4 658.8 234.4L658.8 234.4Q660.8 234.4 662.2 235.2Q663.7 236.0 664.5 237.6Q665.3 239.2 665.3 241.6L665.3 241.6L665.3 253.8L662.4 253.8L662.4 241.8Q662.4 239.6 661.2 238.3Q660.0 237.1 658.0 237.1L658.0 237.1Q656.6 237.1 655.5 237.7Q654.4 238.3 653.8 239.4Q653.1 240.6 653.1 242.3ZM667.1 234.7L677.0 234.7L677.0 237.2L667.1 237.2L667.1 234.7ZM670.0 249.1L670.0 230.1L672.9 230.1L672.9 248.3Q672.9 249.5 673.3 250.1Q673.6 250.8 674.2 251.0Q674.8 251.2 675.4 251.2L675.4 251.2Q675.9 251.2 676.2 251.1Q676.5 251.1 676.7 251.0L676.7 251.0L677.3 253.7Q677.0 253.8 676.5 253.9Q676.0 254.0 675.1 254.0L675.1 254.0Q673.9 254.0 672.7 253.5Q671.5 252.9 670.8 251.8Q670.0 250.8 670.0 249.1L670.0 249.1Z "/></svg>